<svg xmlns="http://www.w3.org/2000/svg" width="1280" height="390" viewBox="0 0 1280 390">
<rect width="1280" height="390" fill="#0d1117"/>
<text x="640" y="32" text-anchor="middle" font-family="monospace" font-size="13" font-weight="bold" letter-spacing="2" fill="#39d353">SHIP VARIANTS — ALL 12 DESIGNS</text>
<g transform="translate(112.5,120)"><rect x="25" y="0" width="5" height="5" fill="#39d353"/><rect x="25" y="5" width="5" height="5" fill="#39d353"/><rect x="20" y="10" width="5" height="5" fill="#39d353"/><rect x="25" y="10" width="5" height="5" fill="#39d353"/><rect x="30" y="10" width="5" height="5" fill="#39d353"/><rect x="15" y="15" width="5" height="5" fill="#39d353"/><rect x="20" y="15" width="5" height="5" fill="#39d353"/><rect x="25" y="15" width="5" height="5" fill="#39d353"/><rect x="30" y="15" width="5" height="5" fill="#39d353"/><rect x="35" y="15" width="5" height="5" fill="#39d353"/><rect x="5" y="20" width="5" height="5" fill="#39d353"/><rect x="10" y="20" width="5" height="5" fill="#39d353"/><rect x="15" y="20" width="5" height="5" fill="#39d353"/><rect x="20" y="20" width="5" height="5" fill="#39d353"/><rect x="25" y="20" width="5" height="5" fill="#39d353"/><rect x="30" y="20" width="5" height="5" fill="#39d353"/><rect x="35" y="20" width="5" height="5" fill="#39d353"/><rect x="40" y="20" width="5" height="5" fill="#39d353"/><rect x="45" y="20" width="5" height="5" fill="#39d353"/><rect x="0" y="25" width="5" height="5" fill="#39d353"/><rect x="5" y="25" width="5" height="5" fill="#39d353"/><rect x="10" y="25" width="5" height="5" fill="#39d353"/><rect x="15" y="25" width="5" height="5" fill="#39d353"/><rect x="20" y="25" width="5" height="5" fill="#39d353"/><rect x="25" y="25" width="5" height="5" fill="#39d353"/><rect x="30" y="25" width="5" height="5" fill="#39d353"/><rect x="35" y="25" width="5" height="5" fill="#39d353"/><rect x="40" y="25" width="5" height="5" fill="#39d353"/><rect x="45" y="25" width="5" height="5" fill="#39d353"/><rect x="50" y="25" width="5" height="5" fill="#39d353"/><rect x="0" y="30" width="5" height="5" fill="#39d353"/><rect x="20" y="30" width="5" height="5" fill="#39d353"/><rect x="25" y="30" width="5" height="5" fill="#39d353"/><rect x="30" y="30" width="5" height="5" fill="#39d353"/><rect x="50" y="30" width="5" height="5" fill="#39d353"/></g><text x="140" y="182" text-anchor="middle" font-family="monospace" font-size="13" font-weight="bold" fill="#39d353">Rocket</text><g transform="translate(312.5,120)"><rect x="15" y="0" width="5" height="5" fill="#58A6FF"/><rect x="20" y="0" width="5" height="5" fill="#58A6FF"/><rect x="25" y="0" width="5" height="5" fill="#58A6FF"/><rect x="30" y="0" width="5" height="5" fill="#58A6FF"/><rect x="35" y="0" width="5" height="5" fill="#58A6FF"/><rect x="5" y="5" width="5" height="5" fill="#58A6FF"/><rect x="10" y="5" width="5" height="5" fill="#58A6FF"/><rect x="15" y="5" width="5" height="5" fill="#58A6FF"/><rect x="20" y="5" width="5" height="5" fill="#58A6FF"/><rect x="25" y="5" width="5" height="5" fill="#58A6FF"/><rect x="30" y="5" width="5" height="5" fill="#58A6FF"/><rect x="35" y="5" width="5" height="5" fill="#58A6FF"/><rect x="40" y="5" width="5" height="5" fill="#58A6FF"/><rect x="45" y="5" width="5" height="5" fill="#58A6FF"/><rect x="0" y="10" width="5" height="5" fill="#58A6FF"/><rect x="5" y="10" width="5" height="5" fill="#58A6FF"/><rect x="10" y="10" width="5" height="5" fill="#58A6FF"/><rect x="15" y="10" width="5" height="5" fill="#58A6FF"/><rect x="20" y="10" width="5" height="5" fill="#58A6FF"/><rect x="25" y="10" width="5" height="5" fill="#58A6FF"/><rect x="30" y="10" width="5" height="5" fill="#58A6FF"/><rect x="35" y="10" width="5" height="5" fill="#58A6FF"/><rect x="40" y="10" width="5" height="5" fill="#58A6FF"/><rect x="45" y="10" width="5" height="5" fill="#58A6FF"/><rect x="50" y="10" width="5" height="5" fill="#58A6FF"/><rect x="0" y="15" width="5" height="5" fill="#58A6FF"/><rect x="5" y="15" width="5" height="5" fill="#58A6FF"/><rect x="10" y="15" width="5" height="5" fill="#58A6FF"/><rect x="15" y="15" width="5" height="5" fill="#58A6FF"/><rect x="20" y="15" width="5" height="5" fill="#58A6FF"/><rect x="25" y="15" width="5" height="5" fill="#58A6FF"/><rect x="30" y="15" width="5" height="5" fill="#58A6FF"/><rect x="35" y="15" width="5" height="5" fill="#58A6FF"/><rect x="40" y="15" width="5" height="5" fill="#58A6FF"/><rect x="45" y="15" width="5" height="5" fill="#58A6FF"/><rect x="50" y="15" width="5" height="5" fill="#58A6FF"/><rect x="5" y="20" width="5" height="5" fill="#58A6FF"/><rect x="15" y="20" width="5" height="5" fill="#58A6FF"/><rect x="25" y="20" width="5" height="5" fill="#58A6FF"/><rect x="35" y="20" width="5" height="5" fill="#58A6FF"/><rect x="45" y="20" width="5" height="5" fill="#58A6FF"/><rect x="10" y="25" width="5" height="5" fill="#58A6FF"/><rect x="20" y="25" width="5" height="5" fill="#58A6FF"/><rect x="25" y="25" width="5" height="5" fill="#58A6FF"/><rect x="30" y="25" width="5" height="5" fill="#58A6FF"/><rect x="40" y="25" width="5" height="5" fill="#58A6FF"/><rect x="5" y="30" width="5" height="5" fill="#58A6FF"/><rect x="45" y="30" width="5" height="5" fill="#58A6FF"/></g><text x="340" y="182" text-anchor="middle" font-family="monospace" font-size="13" font-weight="bold" fill="#58A6FF">Saucer</text><g transform="translate(512.5,120)"><rect x="25" y="0" width="5" height="5" fill="#F78166"/><rect x="20" y="5" width="5" height="5" fill="#F78166"/><rect x="25" y="5" width="5" height="5" fill="#F78166"/><rect x="30" y="5" width="5" height="5" fill="#F78166"/><rect x="15" y="10" width="5" height="5" fill="#F78166"/><rect x="20" y="10" width="5" height="5" fill="#F78166"/><rect x="25" y="10" width="5" height="5" fill="#F78166"/><rect x="30" y="10" width="5" height="5" fill="#F78166"/><rect x="35" y="10" width="5" height="5" fill="#F78166"/><rect x="10" y="15" width="5" height="5" fill="#F78166"/><rect x="15" y="15" width="5" height="5" fill="#F78166"/><rect x="20" y="15" width="5" height="5" fill="#F78166"/><rect x="25" y="15" width="5" height="5" fill="#F78166"/><rect x="30" y="15" width="5" height="5" fill="#F78166"/><rect x="35" y="15" width="5" height="5" fill="#F78166"/><rect x="40" y="15" width="5" height="5" fill="#F78166"/><rect x="5" y="20" width="5" height="5" fill="#F78166"/><rect x="10" y="20" width="5" height="5" fill="#F78166"/><rect x="15" y="20" width="5" height="5" fill="#F78166"/><rect x="20" y="20" width="5" height="5" fill="#F78166"/><rect x="25" y="20" width="5" height="5" fill="#F78166"/><rect x="30" y="20" width="5" height="5" fill="#F78166"/><rect x="35" y="20" width="5" height="5" fill="#F78166"/><rect x="40" y="20" width="5" height="5" fill="#F78166"/><rect x="45" y="20" width="5" height="5" fill="#F78166"/><rect x="0" y="25" width="5" height="5" fill="#F78166"/><rect x="5" y="25" width="5" height="5" fill="#F78166"/><rect x="10" y="25" width="5" height="5" fill="#F78166"/><rect x="15" y="25" width="5" height="5" fill="#F78166"/><rect x="20" y="25" width="5" height="5" fill="#F78166"/><rect x="25" y="25" width="5" height="5" fill="#F78166"/><rect x="30" y="25" width="5" height="5" fill="#F78166"/><rect x="35" y="25" width="5" height="5" fill="#F78166"/><rect x="40" y="25" width="5" height="5" fill="#F78166"/><rect x="45" y="25" width="5" height="5" fill="#F78166"/><rect x="50" y="25" width="5" height="5" fill="#F78166"/><rect x="0" y="30" width="5" height="5" fill="#F78166"/><rect x="50" y="30" width="5" height="5" fill="#F78166"/></g><text x="540" y="182" text-anchor="middle" font-family="monospace" font-size="13" font-weight="bold" fill="#F78166">Delta</text><g transform="translate(712.5,120)"><rect x="15" y="0" width="5" height="5" fill="#FF79C6"/><rect x="25" y="0" width="5" height="5" fill="#FF79C6"/><rect x="35" y="0" width="5" height="5" fill="#FF79C6"/><rect x="15" y="5" width="5" height="5" fill="#FF79C6"/><rect x="20" y="5" width="5" height="5" fill="#FF79C6"/><rect x="25" y="5" width="5" height="5" fill="#FF79C6"/><rect x="30" y="5" width="5" height="5" fill="#FF79C6"/><rect x="35" y="5" width="5" height="5" fill="#FF79C6"/><rect x="5" y="10" width="5" height="5" fill="#FF79C6"/><rect x="10" y="10" width="5" height="5" fill="#FF79C6"/><rect x="20" y="10" width="5" height="5" fill="#FF79C6"/><rect x="25" y="10" width="5" height="5" fill="#FF79C6"/><rect x="30" y="10" width="5" height="5" fill="#FF79C6"/><rect x="40" y="10" width="5" height="5" fill="#FF79C6"/><rect x="45" y="10" width="5" height="5" fill="#FF79C6"/><rect x="0" y="15" width="5" height="5" fill="#FF79C6"/><rect x="5" y="15" width="5" height="5" fill="#FF79C6"/><rect x="10" y="15" width="5" height="5" fill="#FF79C6"/><rect x="15" y="15" width="5" height="5" fill="#FF79C6"/><rect x="20" y="15" width="5" height="5" fill="#FF79C6"/><rect x="25" y="15" width="5" height="5" fill="#FF79C6"/><rect x="30" y="15" width="5" height="5" fill="#FF79C6"/><rect x="35" y="15" width="5" height="5" fill="#FF79C6"/><rect x="40" y="15" width="5" height="5" fill="#FF79C6"/><rect x="45" y="15" width="5" height="5" fill="#FF79C6"/><rect x="50" y="15" width="5" height="5" fill="#FF79C6"/><rect x="0" y="20" width="5" height="5" fill="#FF79C6"/><rect x="5" y="20" width="5" height="5" fill="#FF79C6"/><rect x="10" y="20" width="5" height="5" fill="#FF79C6"/><rect x="15" y="20" width="5" height="5" fill="#FF79C6"/><rect x="20" y="20" width="5" height="5" fill="#FF79C6"/><rect x="25" y="20" width="5" height="5" fill="#FF79C6"/><rect x="30" y="20" width="5" height="5" fill="#FF79C6"/><rect x="35" y="20" width="5" height="5" fill="#FF79C6"/><rect x="40" y="20" width="5" height="5" fill="#FF79C6"/><rect x="45" y="20" width="5" height="5" fill="#FF79C6"/><rect x="50" y="20" width="5" height="5" fill="#FF79C6"/><rect x="0" y="25" width="5" height="5" fill="#FF79C6"/><rect x="15" y="25" width="5" height="5" fill="#FF79C6"/><rect x="20" y="25" width="5" height="5" fill="#FF79C6"/><rect x="25" y="25" width="5" height="5" fill="#FF79C6"/><rect x="30" y="25" width="5" height="5" fill="#FF79C6"/><rect x="35" y="25" width="5" height="5" fill="#FF79C6"/><rect x="50" y="25" width="5" height="5" fill="#FF79C6"/><rect x="0" y="30" width="5" height="5" fill="#FF79C6"/><rect x="5" y="30" width="5" height="5" fill="#FF79C6"/><rect x="45" y="30" width="5" height="5" fill="#FF79C6"/><rect x="50" y="30" width="5" height="5" fill="#FF79C6"/></g><text x="740" y="182" text-anchor="middle" font-family="monospace" font-size="13" font-weight="bold" fill="#FF79C6">Cruiser</text><g transform="translate(912.5,120)"><rect x="25" y="0" width="5" height="5" fill="#FBBF24"/><rect x="20" y="5" width="5" height="5" fill="#FBBF24"/><rect x="25" y="5" width="5" height="5" fill="#FBBF24"/><rect x="30" y="5" width="5" height="5" fill="#FBBF24"/><rect x="15" y="10" width="5" height="5" fill="#FBBF24"/><rect x="20" y="10" width="5" height="5" fill="#FBBF24"/><rect x="25" y="10" width="5" height="5" fill="#FBBF24"/><rect x="30" y="10" width="5" height="5" fill="#FBBF24"/><rect x="35" y="10" width="5" height="5" fill="#FBBF24"/><rect x="10" y="15" width="5" height="5" fill="#FBBF24"/><rect x="15" y="15" width="5" height="5" fill="#FBBF24"/><rect x="20" y="15" width="5" height="5" fill="#FBBF24"/><rect x="25" y="15" width="5" height="5" fill="#FBBF24"/><rect x="30" y="15" width="5" height="5" fill="#FBBF24"/><rect x="35" y="15" width="5" height="5" fill="#FBBF24"/><rect x="40" y="15" width="5" height="5" fill="#FBBF24"/><rect x="0" y="20" width="5" height="5" fill="#FBBF24"/><rect x="5" y="20" width="5" height="5" fill="#FBBF24"/><rect x="10" y="20" width="5" height="5" fill="#FBBF24"/><rect x="15" y="20" width="5" height="5" fill="#FBBF24"/><rect x="20" y="20" width="5" height="5" fill="#FBBF24"/><rect x="25" y="20" width="5" height="5" fill="#FBBF24"/><rect x="30" y="20" width="5" height="5" fill="#FBBF24"/><rect x="35" y="20" width="5" height="5" fill="#FBBF24"/><rect x="40" y="20" width="5" height="5" fill="#FBBF24"/><rect x="45" y="20" width="5" height="5" fill="#FBBF24"/><rect x="50" y="20" width="5" height="5" fill="#FBBF24"/><rect x="0" y="25" width="5" height="5" fill="#FBBF24"/><rect x="5" y="25" width="5" height="5" fill="#FBBF24"/><rect x="10" y="25" width="5" height="5" fill="#FBBF24"/><rect x="25" y="25" width="5" height="5" fill="#FBBF24"/><rect x="30" y="25" width="5" height="5" fill="#FBBF24"/><rect x="35" y="25" width="5" height="5" fill="#FBBF24"/><rect x="45" y="25" width="5" height="5" fill="#FBBF24"/><rect x="50" y="25" width="5" height="5" fill="#FBBF24"/><rect x="0" y="30" width="5" height="5" fill="#FBBF24"/><rect x="5" y="30" width="5" height="5" fill="#FBBF24"/><rect x="45" y="30" width="5" height="5" fill="#FBBF24"/><rect x="50" y="30" width="5" height="5" fill="#FBBF24"/></g><text x="940" y="182" text-anchor="middle" font-family="monospace" font-size="13" font-weight="bold" fill="#FBBF24">Viper</text><g transform="translate(1112.5,120)"><rect x="0" y="0" width="5" height="5" fill="#a78bfa"/><rect x="25" y="0" width="5" height="5" fill="#a78bfa"/><rect x="50" y="0" width="5" height="5" fill="#a78bfa"/><rect x="5" y="5" width="5" height="5" fill="#a78bfa"/><rect x="20" y="5" width="5" height="5" fill="#a78bfa"/><rect x="25" y="5" width="5" height="5" fill="#a78bfa"/><rect x="30" y="5" width="5" height="5" fill="#a78bfa"/><rect x="45" y="5" width="5" height="5" fill="#a78bfa"/><rect x="5" y="10" width="5" height="5" fill="#a78bfa"/><rect x="10" y="10" width="5" height="5" fill="#a78bfa"/><rect x="15" y="10" width="5" height="5" fill="#a78bfa"/><rect x="20" y="10" width="5" height="5" fill="#a78bfa"/><rect x="25" y="10" width="5" height="5" fill="#a78bfa"/><rect x="30" y="10" width="5" height="5" fill="#a78bfa"/><rect x="35" y="10" width="5" height="5" fill="#a78bfa"/><rect x="40" y="10" width="5" height="5" fill="#a78bfa"/><rect x="45" y="10" width="5" height="5" fill="#a78bfa"/><rect x="0" y="15" width="5" height="5" fill="#a78bfa"/><rect x="5" y="15" width="5" height="5" fill="#a78bfa"/><rect x="10" y="15" width="5" height="5" fill="#a78bfa"/><rect x="15" y="15" width="5" height="5" fill="#a78bfa"/><rect x="20" y="15" width="5" height="5" fill="#a78bfa"/><rect x="25" y="15" width="5" height="5" fill="#a78bfa"/><rect x="30" y="15" width="5" height="5" fill="#a78bfa"/><rect x="35" y="15" width="5" height="5" fill="#a78bfa"/><rect x="40" y="15" width="5" height="5" fill="#a78bfa"/><rect x="45" y="15" width="5" height="5" fill="#a78bfa"/><rect x="50" y="15" width="5" height="5" fill="#a78bfa"/><rect x="0" y="20" width="5" height="5" fill="#a78bfa"/><rect x="5" y="20" width="5" height="5" fill="#a78bfa"/><rect x="10" y="20" width="5" height="5" fill="#a78bfa"/><rect x="15" y="20" width="5" height="5" fill="#a78bfa"/><rect x="20" y="20" width="5" height="5" fill="#a78bfa"/><rect x="25" y="20" width="5" height="5" fill="#a78bfa"/><rect x="30" y="20" width="5" height="5" fill="#a78bfa"/><rect x="35" y="20" width="5" height="5" fill="#a78bfa"/><rect x="40" y="20" width="5" height="5" fill="#a78bfa"/><rect x="45" y="20" width="5" height="5" fill="#a78bfa"/><rect x="50" y="20" width="5" height="5" fill="#a78bfa"/><rect x="5" y="25" width="5" height="5" fill="#a78bfa"/><rect x="10" y="25" width="5" height="5" fill="#a78bfa"/><rect x="15" y="25" width="5" height="5" fill="#a78bfa"/><rect x="20" y="25" width="5" height="5" fill="#a78bfa"/><rect x="25" y="25" width="5" height="5" fill="#a78bfa"/><rect x="30" y="25" width="5" height="5" fill="#a78bfa"/><rect x="35" y="25" width="5" height="5" fill="#a78bfa"/><rect x="40" y="25" width="5" height="5" fill="#a78bfa"/><rect x="45" y="25" width="5" height="5" fill="#a78bfa"/><rect x="0" y="30" width="5" height="5" fill="#a78bfa"/><rect x="25" y="30" width="5" height="5" fill="#a78bfa"/><rect x="50" y="30" width="5" height="5" fill="#a78bfa"/></g><text x="1140" y="182" text-anchor="middle" font-family="monospace" font-size="13" font-weight="bold" fill="#a78bfa">Phantom</text><g transform="translate(112.5,250)"><rect x="25" y="0" width="5" height="5" fill="#34d399"/><rect x="20" y="5" width="5" height="5" fill="#34d399"/><rect x="25" y="5" width="5" height="5" fill="#34d399"/><rect x="30" y="5" width="5" height="5" fill="#34d399"/><rect x="0" y="10" width="5" height="5" fill="#34d399"/><rect x="5" y="10" width="5" height="5" fill="#34d399"/><rect x="10" y="10" width="5" height="5" fill="#34d399"/><rect x="15" y="10" width="5" height="5" fill="#34d399"/><rect x="25" y="10" width="5" height="5" fill="#34d399"/><rect x="30" y="10" width="5" height="5" fill="#34d399"/><rect x="35" y="10" width="5" height="5" fill="#34d399"/><rect x="40" y="10" width="5" height="5" fill="#34d399"/><rect x="45" y="10" width="5" height="5" fill="#34d399"/><rect x="50" y="10" width="5" height="5" fill="#34d399"/><rect x="0" y="15" width="5" height="5" fill="#34d399"/><rect x="5" y="15" width="5" height="5" fill="#34d399"/><rect x="10" y="15" width="5" height="5" fill="#34d399"/><rect x="15" y="15" width="5" height="5" fill="#34d399"/><rect x="20" y="15" width="5" height="5" fill="#34d399"/><rect x="25" y="15" width="5" height="5" fill="#34d399"/><rect x="30" y="15" width="5" height="5" fill="#34d399"/><rect x="35" y="15" width="5" height="5" fill="#34d399"/><rect x="40" y="15" width="5" height="5" fill="#34d399"/><rect x="45" y="15" width="5" height="5" fill="#34d399"/><rect x="50" y="15" width="5" height="5" fill="#34d399"/><rect x="0" y="20" width="5" height="5" fill="#34d399"/><rect x="5" y="20" width="5" height="5" fill="#34d399"/><rect x="10" y="20" width="5" height="5" fill="#34d399"/><rect x="15" y="20" width="5" height="5" fill="#34d399"/><rect x="20" y="20" width="5" height="5" fill="#34d399"/><rect x="25" y="20" width="5" height="5" fill="#34d399"/><rect x="30" y="20" width="5" height="5" fill="#34d399"/><rect x="35" y="20" width="5" height="5" fill="#34d399"/><rect x="40" y="20" width="5" height="5" fill="#34d399"/><rect x="45" y="20" width="5" height="5" fill="#34d399"/><rect x="50" y="20" width="5" height="5" fill="#34d399"/><rect x="5" y="25" width="5" height="5" fill="#34d399"/><rect x="10" y="25" width="5" height="5" fill="#34d399"/><rect x="15" y="25" width="5" height="5" fill="#34d399"/><rect x="25" y="25" width="5" height="5" fill="#34d399"/><rect x="30" y="25" width="5" height="5" fill="#34d399"/><rect x="35" y="25" width="5" height="5" fill="#34d399"/><rect x="45" y="25" width="5" height="5" fill="#34d399"/><rect x="50" y="25" width="5" height="5" fill="#34d399"/><rect x="0" y="30" width="5" height="5" fill="#34d399"/><rect x="50" y="30" width="5" height="5" fill="#34d399"/></g><text x="140" y="312" text-anchor="middle" font-family="monospace" font-size="13" font-weight="bold" fill="#34d399">Hornet</text><g transform="translate(312.5,250)"><rect x="10" y="0" width="5" height="5" fill="#fb923c"/><rect x="30" y="0" width="5" height="5" fill="#fb923c"/><rect x="40" y="0" width="5" height="5" fill="#fb923c"/><rect x="10" y="5" width="5" height="5" fill="#fb923c"/><rect x="15" y="5" width="5" height="5" fill="#fb923c"/><rect x="20" y="5" width="5" height="5" fill="#fb923c"/><rect x="25" y="5" width="5" height="5" fill="#fb923c"/><rect x="30" y="5" width="5" height="5" fill="#fb923c"/><rect x="35" y="5" width="5" height="5" fill="#fb923c"/><rect x="40" y="5" width="5" height="5" fill="#fb923c"/><rect x="5" y="10" width="5" height="5" fill="#fb923c"/><rect x="10" y="10" width="5" height="5" fill="#fb923c"/><rect x="15" y="10" width="5" height="5" fill="#fb923c"/><rect x="20" y="10" width="5" height="5" fill="#fb923c"/><rect x="25" y="10" width="5" height="5" fill="#fb923c"/><rect x="30" y="10" width="5" height="5" fill="#fb923c"/><rect x="35" y="10" width="5" height="5" fill="#fb923c"/><rect x="40" y="10" width="5" height="5" fill="#fb923c"/><rect x="45" y="10" width="5" height="5" fill="#fb923c"/><rect x="0" y="15" width="5" height="5" fill="#fb923c"/><rect x="5" y="15" width="5" height="5" fill="#fb923c"/><rect x="10" y="15" width="5" height="5" fill="#fb923c"/><rect x="15" y="15" width="5" height="5" fill="#fb923c"/><rect x="20" y="15" width="5" height="5" fill="#fb923c"/><rect x="25" y="15" width="5" height="5" fill="#fb923c"/><rect x="30" y="15" width="5" height="5" fill="#fb923c"/><rect x="35" y="15" width="5" height="5" fill="#fb923c"/><rect x="40" y="15" width="5" height="5" fill="#fb923c"/><rect x="45" y="15" width="5" height="5" fill="#fb923c"/><rect x="50" y="15" width="5" height="5" fill="#fb923c"/><rect x="0" y="20" width="5" height="5" fill="#fb923c"/><rect x="5" y="20" width="5" height="5" fill="#fb923c"/><rect x="10" y="20" width="5" height="5" fill="#fb923c"/><rect x="15" y="20" width="5" height="5" fill="#fb923c"/><rect x="20" y="20" width="5" height="5" fill="#fb923c"/><rect x="25" y="20" width="5" height="5" fill="#fb923c"/><rect x="30" y="20" width="5" height="5" fill="#fb923c"/><rect x="35" y="20" width="5" height="5" fill="#fb923c"/><rect x="40" y="20" width="5" height="5" fill="#fb923c"/><rect x="45" y="20" width="5" height="5" fill="#fb923c"/><rect x="50" y="20" width="5" height="5" fill="#fb923c"/><rect x="5" y="25" width="5" height="5" fill="#fb923c"/><rect x="10" y="25" width="5" height="5" fill="#fb923c"/><rect x="15" y="25" width="5" height="5" fill="#fb923c"/><rect x="20" y="25" width="5" height="5" fill="#fb923c"/><rect x="25" y="25" width="5" height="5" fill="#fb923c"/><rect x="30" y="25" width="5" height="5" fill="#fb923c"/><rect x="35" y="25" width="5" height="5" fill="#fb923c"/><rect x="40" y="25" width="5" height="5" fill="#fb923c"/><rect x="45" y="25" width="5" height="5" fill="#fb923c"/><rect x="0" y="30" width="5" height="5" fill="#fb923c"/><rect x="5" y="30" width="5" height="5" fill="#fb923c"/><rect x="20" y="30" width="5" height="5" fill="#fb923c"/><rect x="25" y="30" width="5" height="5" fill="#fb923c"/><rect x="30" y="30" width="5" height="5" fill="#fb923c"/><rect x="45" y="30" width="5" height="5" fill="#fb923c"/><rect x="50" y="30" width="5" height="5" fill="#fb923c"/></g><text x="340" y="312" text-anchor="middle" font-family="monospace" font-size="13" font-weight="bold" fill="#fb923c">Wraith</text><g transform="translate(512.5,250)"><rect x="25" y="0" width="5" height="5" fill="#e879f9"/><rect x="15" y="5" width="5" height="5" fill="#e879f9"/><rect x="20" y="5" width="5" height="5" fill="#e879f9"/><rect x="25" y="5" width="5" height="5" fill="#e879f9"/><rect x="30" y="5" width="5" height="5" fill="#e879f9"/><rect x="35" y="5" width="5" height="5" fill="#e879f9"/><rect x="5" y="10" width="5" height="5" fill="#e879f9"/><rect x="10" y="10" width="5" height="5" fill="#e879f9"/><rect x="15" y="10" width="5" height="5" fill="#e879f9"/><rect x="20" y="10" width="5" height="5" fill="#e879f9"/><rect x="25" y="10" width="5" height="5" fill="#e879f9"/><rect x="30" y="10" width="5" height="5" fill="#e879f9"/><rect x="35" y="10" width="5" height="5" fill="#e879f9"/><rect x="40" y="10" width="5" height="5" fill="#e879f9"/><rect x="45" y="10" width="5" height="5" fill="#e879f9"/><rect x="0" y="15" width="5" height="5" fill="#e879f9"/><rect x="5" y="15" width="5" height="5" fill="#e879f9"/><rect x="10" y="15" width="5" height="5" fill="#e879f9"/><rect x="15" y="15" width="5" height="5" fill="#e879f9"/><rect x="30" y="15" width="5" height="5" fill="#e879f9"/><rect x="35" y="15" width="5" height="5" fill="#e879f9"/><rect x="40" y="15" width="5" height="5" fill="#e879f9"/><rect x="45" y="15" width="5" height="5" fill="#e879f9"/><rect x="50" y="15" width="5" height="5" fill="#e879f9"/><rect x="0" y="20" width="5" height="5" fill="#e879f9"/><rect x="5" y="20" width="5" height="5" fill="#e879f9"/><rect x="10" y="20" width="5" height="5" fill="#e879f9"/><rect x="15" y="20" width="5" height="5" fill="#e879f9"/><rect x="30" y="20" width="5" height="5" fill="#e879f9"/><rect x="35" y="20" width="5" height="5" fill="#e879f9"/><rect x="40" y="20" width="5" height="5" fill="#e879f9"/><rect x="45" y="20" width="5" height="5" fill="#e879f9"/><rect x="50" y="20" width="5" height="5" fill="#e879f9"/><rect x="5" y="25" width="5" height="5" fill="#e879f9"/><rect x="10" y="25" width="5" height="5" fill="#e879f9"/><rect x="15" y="25" width="5" height="5" fill="#e879f9"/><rect x="20" y="25" width="5" height="5" fill="#e879f9"/><rect x="25" y="25" width="5" height="5" fill="#e879f9"/><rect x="30" y="25" width="5" height="5" fill="#e879f9"/><rect x="35" y="25" width="5" height="5" fill="#e879f9"/><rect x="40" y="25" width="5" height="5" fill="#e879f9"/><rect x="45" y="25" width="5" height="5" fill="#e879f9"/><rect x="0" y="30" width="5" height="5" fill="#e879f9"/><rect x="5" y="30" width="5" height="5" fill="#e879f9"/><rect x="10" y="30" width="5" height="5" fill="#e879f9"/><rect x="40" y="30" width="5" height="5" fill="#e879f9"/><rect x="45" y="30" width="5" height="5" fill="#e879f9"/><rect x="50" y="30" width="5" height="5" fill="#e879f9"/></g><text x="540" y="312" text-anchor="middle" font-family="monospace" font-size="13" font-weight="bold" fill="#e879f9">Specter</text><g transform="translate(712.5,250)"><rect x="0" y="0" width="5" height="5" fill="#22d3ee"/><rect x="5" y="0" width="5" height="5" fill="#22d3ee"/><rect x="45" y="0" width="5" height="5" fill="#22d3ee"/><rect x="50" y="0" width="5" height="5" fill="#22d3ee"/><rect x="5" y="5" width="5" height="5" fill="#22d3ee"/><rect x="25" y="5" width="5" height="5" fill="#22d3ee"/><rect x="45" y="5" width="5" height="5" fill="#22d3ee"/><rect x="0" y="10" width="5" height="5" fill="#22d3ee"/><rect x="5" y="10" width="5" height="5" fill="#22d3ee"/><rect x="10" y="10" width="5" height="5" fill="#22d3ee"/><rect x="20" y="10" width="5" height="5" fill="#22d3ee"/><rect x="25" y="10" width="5" height="5" fill="#22d3ee"/><rect x="30" y="10" width="5" height="5" fill="#22d3ee"/><rect x="40" y="10" width="5" height="5" fill="#22d3ee"/><rect x="45" y="10" width="5" height="5" fill="#22d3ee"/><rect x="50" y="10" width="5" height="5" fill="#22d3ee"/><rect x="0" y="15" width="5" height="5" fill="#22d3ee"/><rect x="5" y="15" width="5" height="5" fill="#22d3ee"/><rect x="10" y="15" width="5" height="5" fill="#22d3ee"/><rect x="15" y="15" width="5" height="5" fill="#22d3ee"/><rect x="20" y="15" width="5" height="5" fill="#22d3ee"/><rect x="25" y="15" width="5" height="5" fill="#22d3ee"/><rect x="30" y="15" width="5" height="5" fill="#22d3ee"/><rect x="35" y="15" width="5" height="5" fill="#22d3ee"/><rect x="40" y="15" width="5" height="5" fill="#22d3ee"/><rect x="45" y="15" width="5" height="5" fill="#22d3ee"/><rect x="50" y="15" width="5" height="5" fill="#22d3ee"/><rect x="0" y="20" width="5" height="5" fill="#22d3ee"/><rect x="5" y="20" width="5" height="5" fill="#22d3ee"/><rect x="10" y="20" width="5" height="5" fill="#22d3ee"/><rect x="15" y="20" width="5" height="5" fill="#22d3ee"/><rect x="20" y="20" width="5" height="5" fill="#22d3ee"/><rect x="25" y="20" width="5" height="5" fill="#22d3ee"/><rect x="30" y="20" width="5" height="5" fill="#22d3ee"/><rect x="35" y="20" width="5" height="5" fill="#22d3ee"/><rect x="40" y="20" width="5" height="5" fill="#22d3ee"/><rect x="45" y="20" width="5" height="5" fill="#22d3ee"/><rect x="50" y="20" width="5" height="5" fill="#22d3ee"/><rect x="0" y="25" width="5" height="5" fill="#22d3ee"/><rect x="5" y="25" width="5" height="5" fill="#22d3ee"/><rect x="10" y="25" width="5" height="5" fill="#22d3ee"/><rect x="40" y="25" width="5" height="5" fill="#22d3ee"/><rect x="45" y="25" width="5" height="5" fill="#22d3ee"/><rect x="50" y="25" width="5" height="5" fill="#22d3ee"/><rect x="0" y="30" width="5" height="5" fill="#22d3ee"/><rect x="25" y="30" width="5" height="5" fill="#22d3ee"/><rect x="50" y="30" width="5" height="5" fill="#22d3ee"/></g><text x="740" y="312" text-anchor="middle" font-family="monospace" font-size="13" font-weight="bold" fill="#22d3ee">Predator</text><g transform="translate(912.5,250)"><rect x="15" y="0" width="5" height="5" fill="#f43f5e"/><rect x="20" y="0" width="5" height="5" fill="#f43f5e"/><rect x="25" y="0" width="5" height="5" fill="#f43f5e"/><rect x="30" y="0" width="5" height="5" fill="#f43f5e"/><rect x="35" y="0" width="5" height="5" fill="#f43f5e"/><rect x="10" y="5" width="5" height="5" fill="#f43f5e"/><rect x="15" y="5" width="5" height="5" fill="#f43f5e"/><rect x="20" y="5" width="5" height="5" fill="#f43f5e"/><rect x="25" y="5" width="5" height="5" fill="#f43f5e"/><rect x="30" y="5" width="5" height="5" fill="#f43f5e"/><rect x="35" y="5" width="5" height="5" fill="#f43f5e"/><rect x="40" y="5" width="5" height="5" fill="#f43f5e"/><rect x="5" y="10" width="5" height="5" fill="#f43f5e"/><rect x="10" y="10" width="5" height="5" fill="#f43f5e"/><rect x="15" y="10" width="5" height="5" fill="#f43f5e"/><rect x="20" y="10" width="5" height="5" fill="#f43f5e"/><rect x="25" y="10" width="5" height="5" fill="#f43f5e"/><rect x="30" y="10" width="5" height="5" fill="#f43f5e"/><rect x="35" y="10" width="5" height="5" fill="#f43f5e"/><rect x="40" y="10" width="5" height="5" fill="#f43f5e"/><rect x="45" y="10" width="5" height="5" fill="#f43f5e"/><rect x="0" y="15" width="5" height="5" fill="#f43f5e"/><rect x="5" y="15" width="5" height="5" fill="#f43f5e"/><rect x="10" y="15" width="5" height="5" fill="#f43f5e"/><rect x="15" y="15" width="5" height="5" fill="#f43f5e"/><rect x="20" y="15" width="5" height="5" fill="#f43f5e"/><rect x="25" y="15" width="5" height="5" fill="#f43f5e"/><rect x="30" y="15" width="5" height="5" fill="#f43f5e"/><rect x="35" y="15" width="5" height="5" fill="#f43f5e"/><rect x="40" y="15" width="5" height="5" fill="#f43f5e"/><rect x="45" y="15" width="5" height="5" fill="#f43f5e"/><rect x="50" y="15" width="5" height="5" fill="#f43f5e"/><rect x="0" y="20" width="5" height="5" fill="#f43f5e"/><rect x="5" y="20" width="5" height="5" fill="#f43f5e"/><rect x="10" y="20" width="5" height="5" fill="#f43f5e"/><rect x="15" y="20" width="5" height="5" fill="#f43f5e"/><rect x="20" y="20" width="5" height="5" fill="#f43f5e"/><rect x="25" y="20" width="5" height="5" fill="#f43f5e"/><rect x="30" y="20" width="5" height="5" fill="#f43f5e"/><rect x="35" y="20" width="5" height="5" fill="#f43f5e"/><rect x="40" y="20" width="5" height="5" fill="#f43f5e"/><rect x="45" y="20" width="5" height="5" fill="#f43f5e"/><rect x="50" y="20" width="5" height="5" fill="#f43f5e"/><rect x="0" y="25" width="5" height="5" fill="#f43f5e"/><rect x="5" y="25" width="5" height="5" fill="#f43f5e"/><rect x="20" y="25" width="5" height="5" fill="#f43f5e"/><rect x="30" y="25" width="5" height="5" fill="#f43f5e"/><rect x="45" y="25" width="5" height="5" fill="#f43f5e"/><rect x="50" y="25" width="5" height="5" fill="#f43f5e"/><rect x="0" y="30" width="5" height="5" fill="#f43f5e"/><rect x="5" y="30" width="5" height="5" fill="#f43f5e"/><rect x="15" y="30" width="5" height="5" fill="#f43f5e"/><rect x="35" y="30" width="5" height="5" fill="#f43f5e"/><rect x="45" y="30" width="5" height="5" fill="#f43f5e"/><rect x="50" y="30" width="5" height="5" fill="#f43f5e"/></g><text x="940" y="312" text-anchor="middle" font-family="monospace" font-size="13" font-weight="bold" fill="#f43f5e">Eclipse</text><g transform="translate(1112.5,250)"><rect x="25" y="0" width="5" height="5" fill="#a3e635"/><rect x="20" y="5" width="5" height="5" fill="#a3e635"/><rect x="25" y="5" width="5" height="5" fill="#a3e635"/><rect x="30" y="5" width="5" height="5" fill="#a3e635"/><rect x="0" y="10" width="5" height="5" fill="#a3e635"/><rect x="5" y="10" width="5" height="5" fill="#a3e635"/><rect x="20" y="10" width="5" height="5" fill="#a3e635"/><rect x="25" y="10" width="5" height="5" fill="#a3e635"/><rect x="30" y="10" width="5" height="5" fill="#a3e635"/><rect x="45" y="10" width="5" height="5" fill="#a3e635"/><rect x="50" y="10" width="5" height="5" fill="#a3e635"/><rect x="0" y="15" width="5" height="5" fill="#a3e635"/><rect x="5" y="15" width="5" height="5" fill="#a3e635"/><rect x="10" y="15" width="5" height="5" fill="#a3e635"/><rect x="15" y="15" width="5" height="5" fill="#a3e635"/><rect x="20" y="15" width="5" height="5" fill="#a3e635"/><rect x="25" y="15" width="5" height="5" fill="#a3e635"/><rect x="30" y="15" width="5" height="5" fill="#a3e635"/><rect x="35" y="15" width="5" height="5" fill="#a3e635"/><rect x="40" y="15" width="5" height="5" fill="#a3e635"/><rect x="45" y="15" width="5" height="5" fill="#a3e635"/><rect x="50" y="15" width="5" height="5" fill="#a3e635"/><rect x="0" y="20" width="5" height="5" fill="#a3e635"/><rect x="5" y="20" width="5" height="5" fill="#a3e635"/><rect x="10" y="20" width="5" height="5" fill="#a3e635"/><rect x="15" y="20" width="5" height="5" fill="#a3e635"/><rect x="20" y="20" width="5" height="5" fill="#a3e635"/><rect x="25" y="20" width="5" height="5" fill="#a3e635"/><rect x="30" y="20" width="5" height="5" fill="#a3e635"/><rect x="35" y="20" width="5" height="5" fill="#a3e635"/><rect x="40" y="20" width="5" height="5" fill="#a3e635"/><rect x="45" y="20" width="5" height="5" fill="#a3e635"/><rect x="50" y="20" width="5" height="5" fill="#a3e635"/><rect x="0" y="25" width="5" height="5" fill="#a3e635"/><rect x="5" y="25" width="5" height="5" fill="#a3e635"/><rect x="20" y="25" width="5" height="5" fill="#a3e635"/><rect x="25" y="25" width="5" height="5" fill="#a3e635"/><rect x="30" y="25" width="5" height="5" fill="#a3e635"/><rect x="45" y="25" width="5" height="5" fill="#a3e635"/><rect x="50" y="25" width="5" height="5" fill="#a3e635"/><rect x="5" y="30" width="5" height="5" fill="#a3e635"/><rect x="20" y="30" width="5" height="5" fill="#a3e635"/><rect x="30" y="30" width="5" height="5" fill="#a3e635"/><rect x="45" y="30" width="5" height="5" fill="#a3e635"/></g><text x="1140" y="312" text-anchor="middle" font-family="monospace" font-size="13" font-weight="bold" fill="#a3e635">Nova</text>
</svg>