<svg xmlns="http://www.w3.org/2000/svg" width="1280" height="390" viewBox="0 0 1280 390">
<rect width="1280" height="390" fill="#ffffff"/>
<text x="640" y="32" text-anchor="middle" font-family="monospace" font-size="13" font-weight="bold" letter-spacing="2" fill="#216e39">ALIEN TYPES — ALL 12 DESIGNS</text>
<g transform="translate(112.5,120)"><rect x="10" y="0" width="5" height="5" fill="#216e39"/><rect x="40" y="0" width="5" height="5" fill="#216e39"/><rect x="15" y="5" width="5" height="5" fill="#216e39"/><rect x="35" y="5" width="5" height="5" fill="#216e39"/><rect x="5" y="10" width="5" height="5" fill="#216e39"/><rect x="10" y="10" width="5" height="5" fill="#216e39"/><rect x="15" y="10" width="5" height="5" fill="#216e39"/><rect x="20" y="10" width="5" height="5" fill="#216e39"/><rect x="25" y="10" width="5" height="5" fill="#216e39"/><rect x="30" y="10" width="5" height="5" fill="#216e39"/><rect x="35" y="10" width="5" height="5" fill="#216e39"/><rect x="40" y="10" width="5" height="5" fill="#216e39"/><rect x="45" y="10" width="5" height="5" fill="#216e39"/><rect x="0" y="15" width="5" height="5" fill="#216e39"/><rect x="5" y="15" width="5" height="5" fill="#216e39"/><rect x="15" y="15" width="5" height="5" fill="#216e39"/><rect x="20" y="15" width="5" height="5" fill="#216e39"/><rect x="25" y="15" width="5" height="5" fill="#216e39"/><rect x="30" y="15" width="5" height="5" fill="#216e39"/><rect x="35" y="15" width="5" height="5" fill="#216e39"/><rect x="45" y="15" width="5" height="5" fill="#216e39"/><rect x="50" y="15" width="5" height="5" fill="#216e39"/><rect x="0" y="20" width="5" height="5" fill="#216e39"/><rect x="5" y="20" width="5" height="5" fill="#216e39"/><rect x="10" y="20" width="5" height="5" fill="#216e39"/><rect x="15" y="20" width="5" height="5" fill="#216e39"/><rect x="20" y="20" width="5" height="5" fill="#216e39"/><rect x="25" y="20" width="5" height="5" fill="#216e39"/><rect x="30" y="20" width="5" height="5" fill="#216e39"/><rect x="35" y="20" width="5" height="5" fill="#216e39"/><rect x="40" y="20" width="5" height="5" fill="#216e39"/><rect x="45" y="20" width="5" height="5" fill="#216e39"/><rect x="50" y="20" width="5" height="5" fill="#216e39"/><rect x="5" y="25" width="5" height="5" fill="#216e39"/><rect x="15" y="25" width="5" height="5" fill="#216e39"/><rect x="25" y="25" width="5" height="5" fill="#216e39"/><rect x="35" y="25" width="5" height="5" fill="#216e39"/><rect x="45" y="25" width="5" height="5" fill="#216e39"/><rect x="0" y="30" width="5" height="5" fill="#216e39"/><rect x="20" y="30" width="5" height="5" fill="#216e39"/><rect x="30" y="30" width="5" height="5" fill="#216e39"/><rect x="50" y="30" width="5" height="5" fill="#216e39"/></g><text x="140" y="182" text-anchor="middle" font-family="monospace" font-size="13" font-weight="bold" fill="#216e39">Squid</text><g transform="translate(312.5,120)"><rect x="5" y="0" width="5" height="5" fill="#0969da"/><rect x="45" y="0" width="5" height="5" fill="#0969da"/><rect x="10" y="5" width="5" height="5" fill="#0969da"/><rect x="20" y="5" width="5" height="5" fill="#0969da"/><rect x="25" y="5" width="5" height="5" fill="#0969da"/><rect x="30" y="5" width="5" height="5" fill="#0969da"/><rect x="40" y="5" width="5" height="5" fill="#0969da"/><rect x="5" y="10" width="5" height="5" fill="#0969da"/><rect x="10" y="10" width="5" height="5" fill="#0969da"/><rect x="15" y="10" width="5" height="5" fill="#0969da"/><rect x="20" y="10" width="5" height="5" fill="#0969da"/><rect x="25" y="10" width="5" height="5" fill="#0969da"/><rect x="30" y="10" width="5" height="5" fill="#0969da"/><rect x="35" y="10" width="5" height="5" fill="#0969da"/><rect x="40" y="10" width="5" height="5" fill="#0969da"/><rect x="45" y="10" width="5" height="5" fill="#0969da"/><rect x="0" y="15" width="5" height="5" fill="#0969da"/><rect x="5" y="15" width="5" height="5" fill="#0969da"/><rect x="15" y="15" width="5" height="5" fill="#0969da"/><rect x="25" y="15" width="5" height="5" fill="#0969da"/><rect x="35" y="15" width="5" height="5" fill="#0969da"/><rect x="45" y="15" width="5" height="5" fill="#0969da"/><rect x="50" y="15" width="5" height="5" fill="#0969da"/><rect x="0" y="20" width="5" height="5" fill="#0969da"/><rect x="5" y="20" width="5" height="5" fill="#0969da"/><rect x="10" y="20" width="5" height="5" fill="#0969da"/><rect x="15" y="20" width="5" height="5" fill="#0969da"/><rect x="20" y="20" width="5" height="5" fill="#0969da"/><rect x="25" y="20" width="5" height="5" fill="#0969da"/><rect x="30" y="20" width="5" height="5" fill="#0969da"/><rect x="35" y="20" width="5" height="5" fill="#0969da"/><rect x="40" y="20" width="5" height="5" fill="#0969da"/><rect x="45" y="20" width="5" height="5" fill="#0969da"/><rect x="50" y="20" width="5" height="5" fill="#0969da"/><rect x="0" y="25" width="5" height="5" fill="#0969da"/><rect x="10" y="25" width="5" height="5" fill="#0969da"/><rect x="15" y="25" width="5" height="5" fill="#0969da"/><rect x="25" y="25" width="5" height="5" fill="#0969da"/><rect x="35" y="25" width="5" height="5" fill="#0969da"/><rect x="40" y="25" width="5" height="5" fill="#0969da"/><rect x="50" y="25" width="5" height="5" fill="#0969da"/><rect x="0" y="30" width="5" height="5" fill="#0969da"/><rect x="50" y="30" width="5" height="5" fill="#0969da"/></g><text x="340" y="182" text-anchor="middle" font-family="monospace" font-size="13" font-weight="bold" fill="#0969da">Crab</text><g transform="translate(512.5,120)"><rect x="10" y="0" width="5" height="5" fill="#bc4c00"/><rect x="15" y="0" width="5" height="5" fill="#bc4c00"/><rect x="20" y="0" width="5" height="5" fill="#bc4c00"/><rect x="25" y="0" width="5" height="5" fill="#bc4c00"/><rect x="30" y="0" width="5" height="5" fill="#bc4c00"/><rect x="35" y="0" width="5" height="5" fill="#bc4c00"/><rect x="40" y="0" width="5" height="5" fill="#bc4c00"/><rect x="5" y="5" width="5" height="5" fill="#bc4c00"/><rect x="10" y="5" width="5" height="5" fill="#bc4c00"/><rect x="15" y="5" width="5" height="5" fill="#bc4c00"/><rect x="20" y="5" width="5" height="5" fill="#bc4c00"/><rect x="25" y="5" width="5" height="5" fill="#bc4c00"/><rect x="30" y="5" width="5" height="5" fill="#bc4c00"/><rect x="35" y="5" width="5" height="5" fill="#bc4c00"/><rect x="40" y="5" width="5" height="5" fill="#bc4c00"/><rect x="45" y="5" width="5" height="5" fill="#bc4c00"/><rect x="0" y="10" width="5" height="5" fill="#bc4c00"/><rect x="5" y="10" width="5" height="5" fill="#bc4c00"/><rect x="15" y="10" width="5" height="5" fill="#bc4c00"/><rect x="25" y="10" width="5" height="5" fill="#bc4c00"/><rect x="35" y="10" width="5" height="5" fill="#bc4c00"/><rect x="45" y="10" width="5" height="5" fill="#bc4c00"/><rect x="50" y="10" width="5" height="5" fill="#bc4c00"/><rect x="0" y="15" width="5" height="5" fill="#bc4c00"/><rect x="5" y="15" width="5" height="5" fill="#bc4c00"/><rect x="10" y="15" width="5" height="5" fill="#bc4c00"/><rect x="15" y="15" width="5" height="5" fill="#bc4c00"/><rect x="20" y="15" width="5" height="5" fill="#bc4c00"/><rect x="25" y="15" width="5" height="5" fill="#bc4c00"/><rect x="30" y="15" width="5" height="5" fill="#bc4c00"/><rect x="35" y="15" width="5" height="5" fill="#bc4c00"/><rect x="40" y="15" width="5" height="5" fill="#bc4c00"/><rect x="45" y="15" width="5" height="5" fill="#bc4c00"/><rect x="50" y="15" width="5" height="5" fill="#bc4c00"/><rect x="5" y="20" width="5" height="5" fill="#bc4c00"/><rect x="10" y="20" width="5" height="5" fill="#bc4c00"/><rect x="20" y="20" width="5" height="5" fill="#bc4c00"/><rect x="25" y="20" width="5" height="5" fill="#bc4c00"/><rect x="30" y="20" width="5" height="5" fill="#bc4c00"/><rect x="40" y="20" width="5" height="5" fill="#bc4c00"/><rect x="45" y="20" width="5" height="5" fill="#bc4c00"/><rect x="10" y="25" width="5" height="5" fill="#bc4c00"/><rect x="25" y="25" width="5" height="5" fill="#bc4c00"/><rect x="40" y="25" width="5" height="5" fill="#bc4c00"/><rect x="5" y="30" width="5" height="5" fill="#bc4c00"/><rect x="45" y="30" width="5" height="5" fill="#bc4c00"/></g><text x="540" y="182" text-anchor="middle" font-family="monospace" font-size="13" font-weight="bold" fill="#bc4c00">Octopus</text><g transform="translate(712.5,120)"><rect x="0" y="0" width="5" height="5" fill="#bf3989"/><rect x="15" y="0" width="5" height="5" fill="#bf3989"/><rect x="35" y="0" width="5" height="5" fill="#bf3989"/><rect x="50" y="0" width="5" height="5" fill="#bf3989"/><rect x="5" y="5" width="5" height="5" fill="#bf3989"/><rect x="20" y="5" width="5" height="5" fill="#bf3989"/><rect x="30" y="5" width="5" height="5" fill="#bf3989"/><rect x="45" y="5" width="5" height="5" fill="#bf3989"/><rect x="10" y="10" width="5" height="5" fill="#bf3989"/><rect x="15" y="10" width="5" height="5" fill="#bf3989"/><rect x="20" y="10" width="5" height="5" fill="#bf3989"/><rect x="25" y="10" width="5" height="5" fill="#bf3989"/><rect x="30" y="10" width="5" height="5" fill="#bf3989"/><rect x="35" y="10" width="5" height="5" fill="#bf3989"/><rect x="40" y="10" width="5" height="5" fill="#bf3989"/><rect x="0" y="15" width="5" height="5" fill="#bf3989"/><rect x="5" y="15" width="5" height="5" fill="#bf3989"/><rect x="10" y="15" width="5" height="5" fill="#bf3989"/><rect x="20" y="15" width="5" height="5" fill="#bf3989"/><rect x="25" y="15" width="5" height="5" fill="#bf3989"/><rect x="30" y="15" width="5" height="5" fill="#bf3989"/><rect x="40" y="15" width="5" height="5" fill="#bf3989"/><rect x="45" y="15" width="5" height="5" fill="#bf3989"/><rect x="50" y="15" width="5" height="5" fill="#bf3989"/><rect x="0" y="20" width="5" height="5" fill="#bf3989"/><rect x="5" y="20" width="5" height="5" fill="#bf3989"/><rect x="10" y="20" width="5" height="5" fill="#bf3989"/><rect x="15" y="20" width="5" height="5" fill="#bf3989"/><rect x="20" y="20" width="5" height="5" fill="#bf3989"/><rect x="25" y="20" width="5" height="5" fill="#bf3989"/><rect x="30" y="20" width="5" height="5" fill="#bf3989"/><rect x="35" y="20" width="5" height="5" fill="#bf3989"/><rect x="40" y="20" width="5" height="5" fill="#bf3989"/><rect x="45" y="20" width="5" height="5" fill="#bf3989"/><rect x="50" y="20" width="5" height="5" fill="#bf3989"/><rect x="0" y="25" width="5" height="5" fill="#bf3989"/><rect x="10" y="25" width="5" height="5" fill="#bf3989"/><rect x="20" y="25" width="5" height="5" fill="#bf3989"/><rect x="25" y="25" width="5" height="5" fill="#bf3989"/><rect x="30" y="25" width="5" height="5" fill="#bf3989"/><rect x="40" y="25" width="5" height="5" fill="#bf3989"/><rect x="50" y="25" width="5" height="5" fill="#bf3989"/><rect x="0" y="30" width="5" height="5" fill="#bf3989"/><rect x="15" y="30" width="5" height="5" fill="#bf3989"/><rect x="35" y="30" width="5" height="5" fill="#bf3989"/><rect x="50" y="30" width="5" height="5" fill="#bf3989"/></g><text x="740" y="182" text-anchor="middle" font-family="monospace" font-size="13" font-weight="bold" fill="#bf3989">Spider</text><g transform="translate(912.5,120)"><rect x="20" y="0" width="5" height="5" fill="#9a6700"/><rect x="30" y="0" width="5" height="5" fill="#9a6700"/><rect x="15" y="5" width="5" height="5" fill="#9a6700"/><rect x="20" y="5" width="5" height="5" fill="#9a6700"/><rect x="25" y="5" width="5" height="5" fill="#9a6700"/><rect x="30" y="5" width="5" height="5" fill="#9a6700"/><rect x="35" y="5" width="5" height="5" fill="#9a6700"/><rect x="5" y="10" width="5" height="5" fill="#9a6700"/><rect x="10" y="10" width="5" height="5" fill="#9a6700"/><rect x="15" y="10" width="5" height="5" fill="#9a6700"/><rect x="20" y="10" width="5" height="5" fill="#9a6700"/><rect x="25" y="10" width="5" height="5" fill="#9a6700"/><rect x="30" y="10" width="5" height="5" fill="#9a6700"/><rect x="35" y="10" width="5" height="5" fill="#9a6700"/><rect x="40" y="10" width="5" height="5" fill="#9a6700"/><rect x="45" y="10" width="5" height="5" fill="#9a6700"/><rect x="0" y="15" width="5" height="5" fill="#9a6700"/><rect x="5" y="15" width="5" height="5" fill="#9a6700"/><rect x="10" y="15" width="5" height="5" fill="#9a6700"/><rect x="15" y="15" width="5" height="5" fill="#9a6700"/><rect x="25" y="15" width="5" height="5" fill="#9a6700"/><rect x="30" y="15" width="5" height="5" fill="#9a6700"/><rect x="40" y="15" width="5" height="5" fill="#9a6700"/><rect x="45" y="15" width="5" height="5" fill="#9a6700"/><rect x="50" y="15" width="5" height="5" fill="#9a6700"/><rect x="0" y="20" width="5" height="5" fill="#9a6700"/><rect x="5" y="20" width="5" height="5" fill="#9a6700"/><rect x="10" y="20" width="5" height="5" fill="#9a6700"/><rect x="15" y="20" width="5" height="5" fill="#9a6700"/><rect x="20" y="20" width="5" height="5" fill="#9a6700"/><rect x="25" y="20" width="5" height="5" fill="#9a6700"/><rect x="30" y="20" width="5" height="5" fill="#9a6700"/><rect x="35" y="20" width="5" height="5" fill="#9a6700"/><rect x="40" y="20" width="5" height="5" fill="#9a6700"/><rect x="45" y="20" width="5" height="5" fill="#9a6700"/><rect x="50" y="20" width="5" height="5" fill="#9a6700"/><rect x="10" y="25" width="5" height="5" fill="#9a6700"/><rect x="15" y="25" width="5" height="5" fill="#9a6700"/><rect x="20" y="25" width="5" height="5" fill="#9a6700"/><rect x="25" y="25" width="5" height="5" fill="#9a6700"/><rect x="30" y="25" width="5" height="5" fill="#9a6700"/><rect x="35" y="25" width="5" height="5" fill="#9a6700"/><rect x="40" y="25" width="5" height="5" fill="#9a6700"/><rect x="5" y="30" width="5" height="5" fill="#9a6700"/><rect x="45" y="30" width="5" height="5" fill="#9a6700"/></g><text x="940" y="182" text-anchor="middle" font-family="monospace" font-size="13" font-weight="bold" fill="#9a6700">Hornet</text><g transform="translate(1112.5,120)"><rect x="5" y="0" width="5" height="5" fill="#7c3aed"/><rect x="10" y="0" width="5" height="5" fill="#7c3aed"/><rect x="15" y="0" width="5" height="5" fill="#7c3aed"/><rect x="20" y="0" width="5" height="5" fill="#7c3aed"/><rect x="25" y="0" width="5" height="5" fill="#7c3aed"/><rect x="30" y="0" width="5" height="5" fill="#7c3aed"/><rect x="35" y="0" width="5" height="5" fill="#7c3aed"/><rect x="40" y="0" width="5" height="5" fill="#7c3aed"/><rect x="45" y="0" width="5" height="5" fill="#7c3aed"/><rect x="0" y="5" width="5" height="5" fill="#7c3aed"/><rect x="5" y="5" width="5" height="5" fill="#7c3aed"/><rect x="10" y="5" width="5" height="5" fill="#7c3aed"/><rect x="15" y="5" width="5" height="5" fill="#7c3aed"/><rect x="20" y="5" width="5" height="5" fill="#7c3aed"/><rect x="25" y="5" width="5" height="5" fill="#7c3aed"/><rect x="30" y="5" width="5" height="5" fill="#7c3aed"/><rect x="35" y="5" width="5" height="5" fill="#7c3aed"/><rect x="40" y="5" width="5" height="5" fill="#7c3aed"/><rect x="45" y="5" width="5" height="5" fill="#7c3aed"/><rect x="50" y="5" width="5" height="5" fill="#7c3aed"/><rect x="0" y="10" width="5" height="5" fill="#7c3aed"/><rect x="5" y="10" width="5" height="5" fill="#7c3aed"/><rect x="15" y="10" width="5" height="5" fill="#7c3aed"/><rect x="25" y="10" width="5" height="5" fill="#7c3aed"/><rect x="35" y="10" width="5" height="5" fill="#7c3aed"/><rect x="45" y="10" width="5" height="5" fill="#7c3aed"/><rect x="50" y="10" width="5" height="5" fill="#7c3aed"/><rect x="0" y="15" width="5" height="5" fill="#7c3aed"/><rect x="5" y="15" width="5" height="5" fill="#7c3aed"/><rect x="10" y="15" width="5" height="5" fill="#7c3aed"/><rect x="15" y="15" width="5" height="5" fill="#7c3aed"/><rect x="20" y="15" width="5" height="5" fill="#7c3aed"/><rect x="25" y="15" width="5" height="5" fill="#7c3aed"/><rect x="30" y="15" width="5" height="5" fill="#7c3aed"/><rect x="35" y="15" width="5" height="5" fill="#7c3aed"/><rect x="40" y="15" width="5" height="5" fill="#7c3aed"/><rect x="45" y="15" width="5" height="5" fill="#7c3aed"/><rect x="50" y="15" width="5" height="5" fill="#7c3aed"/><rect x="5" y="20" width="5" height="5" fill="#7c3aed"/><rect x="15" y="20" width="5" height="5" fill="#7c3aed"/><rect x="20" y="20" width="5" height="5" fill="#7c3aed"/><rect x="25" y="20" width="5" height="5" fill="#7c3aed"/><rect x="35" y="20" width="5" height="5" fill="#7c3aed"/><rect x="45" y="20" width="5" height="5" fill="#7c3aed"/><rect x="5" y="25" width="5" height="5" fill="#7c3aed"/><rect x="20" y="25" width="5" height="5" fill="#7c3aed"/><rect x="35" y="25" width="5" height="5" fill="#7c3aed"/><rect x="45" y="25" width="5" height="5" fill="#7c3aed"/><rect x="0" y="30" width="5" height="5" fill="#7c3aed"/><rect x="50" y="30" width="5" height="5" fill="#7c3aed"/></g><text x="1140" y="182" text-anchor="middle" font-family="monospace" font-size="13" font-weight="bold" fill="#7c3aed">Jellyfish</text><g transform="translate(112.5,250)"><rect x="0" y="0" width="5" height="5" fill="#059669"/><rect x="20" y="0" width="5" height="5" fill="#059669"/><rect x="25" y="0" width="5" height="5" fill="#059669"/><rect x="30" y="0" width="5" height="5" fill="#059669"/><rect x="50" y="0" width="5" height="5" fill="#059669"/><rect x="5" y="5" width="5" height="5" fill="#059669"/><rect x="20" y="5" width="5" height="5" fill="#059669"/><rect x="25" y="5" width="5" height="5" fill="#059669"/><rect x="30" y="5" width="5" height="5" fill="#059669"/><rect x="45" y="5" width="5" height="5" fill="#059669"/><rect x="10" y="10" width="5" height="5" fill="#059669"/><rect x="15" y="10" width="5" height="5" fill="#059669"/><rect x="20" y="10" width="5" height="5" fill="#059669"/><rect x="25" y="10" width="5" height="5" fill="#059669"/><rect x="30" y="10" width="5" height="5" fill="#059669"/><rect x="35" y="10" width="5" height="5" fill="#059669"/><rect x="40" y="10" width="5" height="5" fill="#059669"/><rect x="0" y="15" width="5" height="5" fill="#059669"/><rect x="5" y="15" width="5" height="5" fill="#059669"/><rect x="10" y="15" width="5" height="5" fill="#059669"/><rect x="15" y="15" width="5" height="5" fill="#059669"/><rect x="20" y="15" width="5" height="5" fill="#059669"/><rect x="25" y="15" width="5" height="5" fill="#059669"/><rect x="30" y="15" width="5" height="5" fill="#059669"/><rect x="35" y="15" width="5" height="5" fill="#059669"/><rect x="40" y="15" width="5" height="5" fill="#059669"/><rect x="45" y="15" width="5" height="5" fill="#059669"/><rect x="50" y="15" width="5" height="5" fill="#059669"/><rect x="0" y="20" width="5" height="5" fill="#059669"/><rect x="5" y="20" width="5" height="5" fill="#059669"/><rect x="10" y="20" width="5" height="5" fill="#059669"/><rect x="15" y="20" width="5" height="5" fill="#059669"/><rect x="20" y="20" width="5" height="5" fill="#059669"/><rect x="25" y="20" width="5" height="5" fill="#059669"/><rect x="30" y="20" width="5" height="5" fill="#059669"/><rect x="35" y="20" width="5" height="5" fill="#059669"/><rect x="40" y="20" width="5" height="5" fill="#059669"/><rect x="45" y="20" width="5" height="5" fill="#059669"/><rect x="50" y="20" width="5" height="5" fill="#059669"/><rect x="0" y="25" width="5" height="5" fill="#059669"/><rect x="10" y="25" width="5" height="5" fill="#059669"/><rect x="40" y="25" width="5" height="5" fill="#059669"/><rect x="50" y="25" width="5" height="5" fill="#059669"/><rect x="0" y="30" width="5" height="5" fill="#059669"/><rect x="5" y="30" width="5" height="5" fill="#059669"/><rect x="45" y="30" width="5" height="5" fill="#059669"/><rect x="50" y="30" width="5" height="5" fill="#059669"/></g><text x="140" y="312" text-anchor="middle" font-family="monospace" font-size="13" font-weight="bold" fill="#059669">Mantis</text><g transform="translate(312.5,250)"><rect x="15" y="0" width="5" height="5" fill="#ea580c"/><rect x="35" y="0" width="5" height="5" fill="#ea580c"/><rect x="5" y="5" width="5" height="5" fill="#ea580c"/><rect x="10" y="5" width="5" height="5" fill="#ea580c"/><rect x="15" y="5" width="5" height="5" fill="#ea580c"/><rect x="35" y="5" width="5" height="5" fill="#ea580c"/><rect x="40" y="5" width="5" height="5" fill="#ea580c"/><rect x="45" y="5" width="5" height="5" fill="#ea580c"/><rect x="0" y="10" width="5" height="5" fill="#ea580c"/><rect x="5" y="10" width="5" height="5" fill="#ea580c"/><rect x="10" y="10" width="5" height="5" fill="#ea580c"/><rect x="15" y="10" width="5" height="5" fill="#ea580c"/><rect x="20" y="10" width="5" height="5" fill="#ea580c"/><rect x="25" y="10" width="5" height="5" fill="#ea580c"/><rect x="30" y="10" width="5" height="5" fill="#ea580c"/><rect x="35" y="10" width="5" height="5" fill="#ea580c"/><rect x="40" y="10" width="5" height="5" fill="#ea580c"/><rect x="45" y="10" width="5" height="5" fill="#ea580c"/><rect x="50" y="10" width="5" height="5" fill="#ea580c"/><rect x="0" y="15" width="5" height="5" fill="#ea580c"/><rect x="10" y="15" width="5" height="5" fill="#ea580c"/><rect x="15" y="15" width="5" height="5" fill="#ea580c"/><rect x="20" y="15" width="5" height="5" fill="#ea580c"/><rect x="25" y="15" width="5" height="5" fill="#ea580c"/><rect x="30" y="15" width="5" height="5" fill="#ea580c"/><rect x="35" y="15" width="5" height="5" fill="#ea580c"/><rect x="40" y="15" width="5" height="5" fill="#ea580c"/><rect x="50" y="15" width="5" height="5" fill="#ea580c"/><rect x="0" y="20" width="5" height="5" fill="#ea580c"/><rect x="5" y="20" width="5" height="5" fill="#ea580c"/><rect x="10" y="20" width="5" height="5" fill="#ea580c"/><rect x="15" y="20" width="5" height="5" fill="#ea580c"/><rect x="20" y="20" width="5" height="5" fill="#ea580c"/><rect x="25" y="20" width="5" height="5" fill="#ea580c"/><rect x="30" y="20" width="5" height="5" fill="#ea580c"/><rect x="35" y="20" width="5" height="5" fill="#ea580c"/><rect x="40" y="20" width="5" height="5" fill="#ea580c"/><rect x="45" y="20" width="5" height="5" fill="#ea580c"/><rect x="50" y="20" width="5" height="5" fill="#ea580c"/><rect x="0" y="25" width="5" height="5" fill="#ea580c"/><rect x="5" y="25" width="5" height="5" fill="#ea580c"/><rect x="15" y="25" width="5" height="5" fill="#ea580c"/><rect x="25" y="25" width="5" height="5" fill="#ea580c"/><rect x="35" y="25" width="5" height="5" fill="#ea580c"/><rect x="45" y="25" width="5" height="5" fill="#ea580c"/><rect x="50" y="25" width="5" height="5" fill="#ea580c"/><rect x="10" y="30" width="5" height="5" fill="#ea580c"/><rect x="20" y="30" width="5" height="5" fill="#ea580c"/><rect x="30" y="30" width="5" height="5" fill="#ea580c"/><rect x="40" y="30" width="5" height="5" fill="#ea580c"/></g><text x="340" y="312" text-anchor="middle" font-family="monospace" font-size="13" font-weight="bold" fill="#ea580c">Beetle</text><g transform="translate(512.5,250)"><rect x="10" y="0" width="5" height="5" fill="#c026d3"/><rect x="15" y="0" width="5" height="5" fill="#c026d3"/><rect x="20" y="0" width="5" height="5" fill="#c026d3"/><rect x="25" y="0" width="5" height="5" fill="#c026d3"/><rect x="30" y="0" width="5" height="5" fill="#c026d3"/><rect x="35" y="0" width="5" height="5" fill="#c026d3"/><rect x="40" y="0" width="5" height="5" fill="#c026d3"/><rect x="5" y="5" width="5" height="5" fill="#c026d3"/><rect x="10" y="5" width="5" height="5" fill="#c026d3"/><rect x="35" y="5" width="5" height="5" fill="#c026d3"/><rect x="40" y="5" width="5" height="5" fill="#c026d3"/><rect x="0" y="10" width="5" height="5" fill="#c026d3"/><rect x="5" y="10" width="5" height="5" fill="#c026d3"/><rect x="10" y="10" width="5" height="5" fill="#c026d3"/><rect x="15" y="10" width="5" height="5" fill="#c026d3"/><rect x="20" y="10" width="5" height="5" fill="#c026d3"/><rect x="25" y="10" width="5" height="5" fill="#c026d3"/><rect x="30" y="10" width="5" height="5" fill="#c026d3"/><rect x="35" y="10" width="5" height="5" fill="#c026d3"/><rect x="40" y="10" width="5" height="5" fill="#c026d3"/><rect x="45" y="10" width="5" height="5" fill="#c026d3"/><rect x="50" y="10" width="5" height="5" fill="#c026d3"/><rect x="0" y="15" width="5" height="5" fill="#c026d3"/><rect x="5" y="15" width="5" height="5" fill="#c026d3"/><rect x="10" y="15" width="5" height="5" fill="#c026d3"/><rect x="15" y="15" width="5" height="5" fill="#c026d3"/><rect x="20" y="15" width="5" height="5" fill="#c026d3"/><rect x="25" y="15" width="5" height="5" fill="#c026d3"/><rect x="30" y="15" width="5" height="5" fill="#c026d3"/><rect x="35" y="15" width="5" height="5" fill="#c026d3"/><rect x="40" y="15" width="5" height="5" fill="#c026d3"/><rect x="45" y="15" width="5" height="5" fill="#c026d3"/><rect x="50" y="15" width="5" height="5" fill="#c026d3"/><rect x="0" y="20" width="5" height="5" fill="#c026d3"/><rect x="5" y="20" width="5" height="5" fill="#c026d3"/><rect x="10" y="20" width="5" height="5" fill="#c026d3"/><rect x="15" y="20" width="5" height="5" fill="#c026d3"/><rect x="20" y="20" width="5" height="5" fill="#c026d3"/><rect x="25" y="20" width="5" height="5" fill="#c026d3"/><rect x="30" y="20" width="5" height="5" fill="#c026d3"/><rect x="35" y="20" width="5" height="5" fill="#c026d3"/><rect x="40" y="20" width="5" height="5" fill="#c026d3"/><rect x="45" y="20" width="5" height="5" fill="#c026d3"/><rect x="50" y="20" width="5" height="5" fill="#c026d3"/><rect x="0" y="25" width="5" height="5" fill="#c026d3"/><rect x="10" y="25" width="5" height="5" fill="#c026d3"/><rect x="20" y="25" width="5" height="5" fill="#c026d3"/><rect x="30" y="25" width="5" height="5" fill="#c026d3"/><rect x="40" y="25" width="5" height="5" fill="#c026d3"/><rect x="50" y="25" width="5" height="5" fill="#c026d3"/><rect x="5" y="30" width="5" height="5" fill="#c026d3"/><rect x="15" y="30" width="5" height="5" fill="#c026d3"/><rect x="25" y="30" width="5" height="5" fill="#c026d3"/><rect x="35" y="30" width="5" height="5" fill="#c026d3"/><rect x="45" y="30" width="5" height="5" fill="#c026d3"/></g><text x="540" y="312" text-anchor="middle" font-family="monospace" font-size="13" font-weight="bold" fill="#c026d3">Ghost</text><g transform="translate(712.5,250)"><rect x="0" y="0" width="5" height="5" fill="#0891b2"/><rect x="5" y="0" width="5" height="5" fill="#0891b2"/><rect x="45" y="0" width="5" height="5" fill="#0891b2"/><rect x="50" y="0" width="5" height="5" fill="#0891b2"/><rect x="0" y="5" width="5" height="5" fill="#0891b2"/><rect x="5" y="5" width="5" height="5" fill="#0891b2"/><rect x="15" y="5" width="5" height="5" fill="#0891b2"/><rect x="20" y="5" width="5" height="5" fill="#0891b2"/><rect x="25" y="5" width="5" height="5" fill="#0891b2"/><rect x="30" y="5" width="5" height="5" fill="#0891b2"/><rect x="35" y="5" width="5" height="5" fill="#0891b2"/><rect x="45" y="5" width="5" height="5" fill="#0891b2"/><rect x="50" y="5" width="5" height="5" fill="#0891b2"/><rect x="5" y="10" width="5" height="5" fill="#0891b2"/><rect x="10" y="10" width="5" height="5" fill="#0891b2"/><rect x="15" y="10" width="5" height="5" fill="#0891b2"/><rect x="20" y="10" width="5" height="5" fill="#0891b2"/><rect x="25" y="10" width="5" height="5" fill="#0891b2"/><rect x="30" y="10" width="5" height="5" fill="#0891b2"/><rect x="35" y="10" width="5" height="5" fill="#0891b2"/><rect x="40" y="10" width="5" height="5" fill="#0891b2"/><rect x="45" y="10" width="5" height="5" fill="#0891b2"/><rect x="10" y="15" width="5" height="5" fill="#0891b2"/><rect x="15" y="15" width="5" height="5" fill="#0891b2"/><rect x="20" y="15" width="5" height="5" fill="#0891b2"/><rect x="25" y="15" width="5" height="5" fill="#0891b2"/><rect x="30" y="15" width="5" height="5" fill="#0891b2"/><rect x="35" y="15" width="5" height="5" fill="#0891b2"/><rect x="40" y="15" width="5" height="5" fill="#0891b2"/><rect x="0" y="20" width="5" height="5" fill="#0891b2"/><rect x="5" y="20" width="5" height="5" fill="#0891b2"/><rect x="10" y="20" width="5" height="5" fill="#0891b2"/><rect x="15" y="20" width="5" height="5" fill="#0891b2"/><rect x="20" y="20" width="5" height="5" fill="#0891b2"/><rect x="25" y="20" width="5" height="5" fill="#0891b2"/><rect x="30" y="20" width="5" height="5" fill="#0891b2"/><rect x="35" y="20" width="5" height="5" fill="#0891b2"/><rect x="40" y="20" width="5" height="5" fill="#0891b2"/><rect x="45" y="20" width="5" height="5" fill="#0891b2"/><rect x="50" y="20" width="5" height="5" fill="#0891b2"/><rect x="0" y="25" width="5" height="5" fill="#0891b2"/><rect x="10" y="25" width="5" height="5" fill="#0891b2"/><rect x="15" y="25" width="5" height="5" fill="#0891b2"/><rect x="20" y="25" width="5" height="5" fill="#0891b2"/><rect x="25" y="25" width="5" height="5" fill="#0891b2"/><rect x="30" y="25" width="5" height="5" fill="#0891b2"/><rect x="35" y="25" width="5" height="5" fill="#0891b2"/><rect x="40" y="25" width="5" height="5" fill="#0891b2"/><rect x="50" y="25" width="5" height="5" fill="#0891b2"/><rect x="15" y="30" width="5" height="5" fill="#0891b2"/><rect x="25" y="30" width="5" height="5" fill="#0891b2"/><rect x="35" y="30" width="5" height="5" fill="#0891b2"/></g><text x="740" y="312" text-anchor="middle" font-family="monospace" font-size="13" font-weight="bold" fill="#0891b2">Scorpion</text><g transform="translate(912.5,250)"><rect x="0" y="0" width="5" height="5" fill="#be123c"/><rect x="20" y="0" width="5" height="5" fill="#be123c"/><rect x="30" y="0" width="5" height="5" fill="#be123c"/><rect x="50" y="0" width="5" height="5" fill="#be123c"/><rect x="0" y="5" width="5" height="5" fill="#be123c"/><rect x="5" y="5" width="5" height="5" fill="#be123c"/><rect x="15" y="5" width="5" height="5" fill="#be123c"/><rect x="20" y="5" width="5" height="5" fill="#be123c"/><rect x="25" y="5" width="5" height="5" fill="#be123c"/><rect x="30" y="5" width="5" height="5" fill="#be123c"/><rect x="35" y="5" width="5" height="5" fill="#be123c"/><rect x="45" y="5" width="5" height="5" fill="#be123c"/><rect x="50" y="5" width="5" height="5" fill="#be123c"/><rect x="0" y="10" width="5" height="5" fill="#be123c"/><rect x="5" y="10" width="5" height="5" fill="#be123c"/><rect x="10" y="10" width="5" height="5" fill="#be123c"/><rect x="15" y="10" width="5" height="5" fill="#be123c"/><rect x="20" y="10" width="5" height="5" fill="#be123c"/><rect x="25" y="10" width="5" height="5" fill="#be123c"/><rect x="30" y="10" width="5" height="5" fill="#be123c"/><rect x="35" y="10" width="5" height="5" fill="#be123c"/><rect x="40" y="10" width="5" height="5" fill="#be123c"/><rect x="45" y="10" width="5" height="5" fill="#be123c"/><rect x="50" y="10" width="5" height="5" fill="#be123c"/><rect x="5" y="15" width="5" height="5" fill="#be123c"/><rect x="10" y="15" width="5" height="5" fill="#be123c"/><rect x="15" y="15" width="5" height="5" fill="#be123c"/><rect x="20" y="15" width="5" height="5" fill="#be123c"/><rect x="25" y="15" width="5" height="5" fill="#be123c"/><rect x="30" y="15" width="5" height="5" fill="#be123c"/><rect x="35" y="15" width="5" height="5" fill="#be123c"/><rect x="40" y="15" width="5" height="5" fill="#be123c"/><rect x="45" y="15" width="5" height="5" fill="#be123c"/><rect x="0" y="20" width="5" height="5" fill="#be123c"/><rect x="5" y="20" width="5" height="5" fill="#be123c"/><rect x="10" y="20" width="5" height="5" fill="#be123c"/><rect x="15" y="20" width="5" height="5" fill="#be123c"/><rect x="20" y="20" width="5" height="5" fill="#be123c"/><rect x="25" y="20" width="5" height="5" fill="#be123c"/><rect x="30" y="20" width="5" height="5" fill="#be123c"/><rect x="35" y="20" width="5" height="5" fill="#be123c"/><rect x="40" y="20" width="5" height="5" fill="#be123c"/><rect x="45" y="20" width="5" height="5" fill="#be123c"/><rect x="50" y="20" width="5" height="5" fill="#be123c"/><rect x="0" y="25" width="5" height="5" fill="#be123c"/><rect x="15" y="25" width="5" height="5" fill="#be123c"/><rect x="25" y="25" width="5" height="5" fill="#be123c"/><rect x="30" y="25" width="5" height="5" fill="#be123c"/><rect x="50" y="25" width="5" height="5" fill="#be123c"/><rect x="0" y="30" width="5" height="5" fill="#be123c"/><rect x="5" y="30" width="5" height="5" fill="#be123c"/><rect x="45" y="30" width="5" height="5" fill="#be123c"/><rect x="50" y="30" width="5" height="5" fill="#be123c"/></g><text x="940" y="312" text-anchor="middle" font-family="monospace" font-size="13" font-weight="bold" fill="#be123c">Moth</text><g transform="translate(1112.5,250)"><rect x="5" y="0" width="5" height="5" fill="#65a30d"/><rect x="20" y="0" width="5" height="5" fill="#65a30d"/><rect x="30" y="0" width="5" height="5" fill="#65a30d"/><rect x="45" y="0" width="5" height="5" fill="#65a30d"/><rect x="0" y="5" width="5" height="5" fill="#65a30d"/><rect x="10" y="5" width="5" height="5" fill="#65a30d"/><rect x="15" y="5" width="5" height="5" fill="#65a30d"/><rect x="25" y="5" width="5" height="5" fill="#65a30d"/><rect x="35" y="5" width="5" height="5" fill="#65a30d"/><rect x="40" y="5" width="5" height="5" fill="#65a30d"/><rect x="50" y="5" width="5" height="5" fill="#65a30d"/><rect x="5" y="10" width="5" height="5" fill="#65a30d"/><rect x="10" y="10" width="5" height="5" fill="#65a30d"/><rect x="15" y="10" width="5" height="5" fill="#65a30d"/><rect x="20" y="10" width="5" height="5" fill="#65a30d"/><rect x="25" y="10" width="5" height="5" fill="#65a30d"/><rect x="30" y="10" width="5" height="5" fill="#65a30d"/><rect x="35" y="10" width="5" height="5" fill="#65a30d"/><rect x="40" y="10" width="5" height="5" fill="#65a30d"/><rect x="45" y="10" width="5" height="5" fill="#65a30d"/><rect x="0" y="15" width="5" height="5" fill="#65a30d"/><rect x="5" y="15" width="5" height="5" fill="#65a30d"/><rect x="10" y="15" width="5" height="5" fill="#65a30d"/><rect x="40" y="15" width="5" height="5" fill="#65a30d"/><rect x="45" y="15" width="5" height="5" fill="#65a30d"/><rect x="50" y="15" width="5" height="5" fill="#65a30d"/><rect x="0" y="20" width="5" height="5" fill="#65a30d"/><rect x="5" y="20" width="5" height="5" fill="#65a30d"/><rect x="10" y="20" width="5" height="5" fill="#65a30d"/><rect x="15" y="20" width="5" height="5" fill="#65a30d"/><rect x="20" y="20" width="5" height="5" fill="#65a30d"/><rect x="25" y="20" width="5" height="5" fill="#65a30d"/><rect x="30" y="20" width="5" height="5" fill="#65a30d"/><rect x="35" y="20" width="5" height="5" fill="#65a30d"/><rect x="40" y="20" width="5" height="5" fill="#65a30d"/><rect x="45" y="20" width="5" height="5" fill="#65a30d"/><rect x="50" y="20" width="5" height="5" fill="#65a30d"/><rect x="5" y="25" width="5" height="5" fill="#65a30d"/><rect x="10" y="25" width="5" height="5" fill="#65a30d"/><rect x="20" y="25" width="5" height="5" fill="#65a30d"/><rect x="25" y="25" width="5" height="5" fill="#65a30d"/><rect x="30" y="25" width="5" height="5" fill="#65a30d"/><rect x="40" y="25" width="5" height="5" fill="#65a30d"/><rect x="45" y="25" width="5" height="5" fill="#65a30d"/><rect x="0" y="30" width="5" height="5" fill="#65a30d"/><rect x="15" y="30" width="5" height="5" fill="#65a30d"/><rect x="35" y="30" width="5" height="5" fill="#65a30d"/><rect x="50" y="30" width="5" height="5" fill="#65a30d"/></g><text x="1140" y="312" text-anchor="middle" font-family="monospace" font-size="13" font-weight="bold" fill="#65a30d">Watcher</text>
</svg>